<?xml version="1.0" encoding="utf-8"?>
<!-- Generator: Adobe Illustrator 16.0.0, SVG Export Plug-In . SVG Version: 6.00 Build 0)  -->
<!DOCTYPE svg PUBLIC "-//W3C//DTD SVG 1.1//EN" "http://www.w3.org/Graphics/SVG/1.1/DTD/svg11.dtd">
<svg version="1.1" id="Layer_1" xmlns="http://www.w3.org/2000/svg" xmlns:xlink="http://www.w3.org/1999/xlink" x="0px" y="0px"
	 width="300px" height="300px" viewBox="0 0 300 300" enable-background="new 0 0 300 300" xml:space="preserve">
<g>
	<g>
		<g>
			<g>
				<path fill="#272727" d="M96.081,163.352c0.044-1.533-1.227-2.459-2.607-2.607c-4.533-0.49-9.332-0.508-13.718,0.884
					c-1.903,0.601-2.788,1.456-3.28,2.656c-0.021,0.021-0.047,0.038-0.068,0.06c-2.229,2.198-2.639,5.464-5.403,7.376
					c-2.022,1.397-4.733,1.69-6.975,0.658c-3.056-1.407-3.983-4.799-4.724-7.8c-1.062-4.3-0.932-8.887-0.572-13.265
					c0.476-5.755,1.787-12.594,5.986-16.868c1.832-1.868,4.926-2.528,7.204-1.191c2.688,1.574,3.538,5.22,3.853,8.062
					c0.094,0.842,0.57,1.452,1.167,1.778c0.423,0.691,1.25,1.17,2.056,1.251c0.82,0.079,1.584-0.351,2.377-0.526
					c0.907-0.199,1.871-0.191,2.793-0.217c1.764-0.047,4.019,0.457,5.701-0.124c1.23-0.422,1.834-1.449,1.826-2.478
					c2.016-4.247,0.343-10.547-1.228-14.502c-2.663-6.711-8.419-12.004-15.569-13.437c-7.213-1.443-14.966,1.645-20.666,5.951
					c-5.792,4.375-9.703,10.252-12.496,16.876c-5.141,12.187-4.878,27.899,1.182,39.697c6.377,12.417,20.311,16.296,33.128,12.889
					c9.874-2.621,19.308-10.113,19.343-21.027C95.794,166.184,96.04,164.842,96.081,163.352z"/>
				<path fill="#272727" d="M179.951,123.186c-0.504-3.09-0.124-6.922-1.638-9.673c-0.643-1.164-2.069-1.298-3.055-0.648
					c-5.011-1.445-15.343-0.254-17.01-0.157c-4.37,0.25-8.757,0.341-13.121,0.639c-3.677,0.252-5.294,0.678-8.974,0.904
					c-3.466,0.211-4.576-0.703-7.812,0.445c-0.701,0.247-1.187,1.117-0.875,1.798c-0.088,0.129-0.161,0.271-0.199,0.441
					c-0.66,3.038-0.521,6.16-0.504,9.254c0.02,3.094-0.321,6.356,0.385,9.381c0.263,1.123,1.387,1.521,2.401,1.363
					c8.281-1.279,11.625-1.521,20.062-1.754c-0.243,8.512,1.731,17.143,1.393,25.712c-0.034,0.891-0.064,1.971-0.146,3.123
					c-0.298,1.256-0.637,2.503-1.052,3.725c-0.308,0.896-1.784,5.112-3.074,5.168c-0.245,0.008-0.879-0.907-1.402-1.747
					c-1.303-3.174-1.976-9.332-2.024-10.201c-0.112-1.918-1.825-3.414-3.78-2.876c-1.452,0.398-3.409-0.126-4.913-0.205
					c-1.912-0.099-0.405,0.013-2.288,0.35c-3.81,0.688-5.79,4.022-6.18,7.597c-0.328,3,1.032,6.476,3.213,9.387
					c2.047,5.581,3.612,10.422,8.605,12.874c9.085,4.454,19.187,1.585,25.716-5.794c6.278-7.098,7.993-16.895,8.252-26.071
					c0.137-4.901-0.108-9.801-0.625-14.674c-0.19-1.78-0.252-4.046-0.515-6.266c2.731,0.131,5.472,0.217,8.14-0.149
					c1.169-0.159,2.263-1.655,2.138-2.807C180.741,129.263,180.447,126.229,179.951,123.186z"/>
				<path fill="#272727" d="M261.452,119.544c-0.047-0.986-0.131-1.966-0.238-2.922c-0.528-4.691-5.347-4.766-9.1-4.469
					c-3.942,0.319-8.067,0.176-12.179,0.197c-1.647-0.069-3.299-0.136-4.95-0.17c-6.572-0.141-11.056-0.31-17.552,1.192
					c-0.243-0.031-0.489-0.06-0.729-0.095c-3.535-0.517-5.249,2.489-4.619,4.888c-0.04,0.453-0.067,0.937-0.101,1.462
					c-0.216,3.295-0.115,6.642-0.197,9.944c-0.154,6.253-0.308,12.509-0.463,18.765c-0.307,12.488-0.299,24.946-0.018,37.436
					c0.041,1.811,1.487,2.652,2.856,2.55c5.578,3.438,12.245,1.616,18.058,0.337c0.622-0.134,1.134-0.536,1.499-1.04
					c0.67-0.347,1.217-0.983,1.455-1.961c1.046-4.265,0.605-8.659,0.018-12.961c-0.326-2.369-0.676-6.649-1.002-9.005
					c3.235-0.514,6.492,0.713,9.358-0.45c1.557,0.778,3.579,0.372,4.126-1.914c0.594-2.487,0.648-5.136,0.613-7.682
					c-0.033-2.366-0.275-5.614-1.721-7.576c-0.175-0.234-0.396-0.436-0.637-0.593c-0.316-0.529-0.845-0.958-1.616-1.175
					c-2.148-0.601-4.253,0.156-6.429,0.4c-1.729,0.195-3.464,0.306-5.198,0.455c-0.027-3.535,0.022-7.064,0.075-10.595
					c1.606-0.214,3.18-0.496,4.538-0.586c2.968-0.188,5.931-0.383,8.906-0.385c2.347,0,4.746-0.04,7.078-0.312
					c1.955-0.227,4.878-0.128,6.391-1.561c0.096-0.093,0.174-0.191,0.247-0.298c1.132-0.228,2.065-1.098,1.959-2.643
					C261.686,126.001,261.946,122.61,261.452,119.544z"/>
			</g>
		</g>
	</g>
	<path fill="#272727" d="M274.239,94.915c-19.694-2.118-39.815-1.87-59.646-2.161c2.354-1.421,4.614-3.008,6.812-4.63
		c7.001-5.178,13.562-11.3,18.325-18.624c0.718-1.103-0.488-2.892-1.807-2.352c-10.828,4.42-21.025,10.471-31.886,14.786
		c2.149-2.895,4.079-5.957,5.816-9.071c5.786-10.358,11.092-25.458,5.773-36.975c-0.622-1.347-1.949-1.162-2.764-0.362
		c-0.203-0.048-0.417-0.051-0.642,0.023c-2.191,0.731-2.984,1.75-4.617,3.453c-2.342,2.441-4.855,4.724-7.325,7.033
		c-4.866,4.549-9.534,9.227-13.796,14.353c-0.575,0.692-1.122,1.409-1.678,2.118c0.389-1.942,0.615-3.912,0.819-5.747
		c0.788-7.096,0.347-14.253-0.193-21.348c-0.058-0.734-0.586-1.396-1.38-1.38c-0.158,0.007-0.316,0.007-0.475,0.004
		c-0.455-0.002-0.981,0.259-1.188,0.681c-4.358,8.936-9.959,18.865-11.894,28.995c-0.545-3.664-1.219-7.31-1.977-10.926
		c-3.183-15.228-7.66-31.415-15.412-45.004c-0.598-1.046-2.226-0.337-1.922,0.811c0.058,0.22,0.121,0.436,0.18,0.652
		c-2.62,0.534-3.62,3.362-4.926,5.503c-1.921,3.145-3.552,6.47-5.102,9.808c-3.355,7.227-5.935,14.8-8.111,22.456
		c-0.532,1.868-1.043,3.779-1.542,5.708c-0.372,0.27-0.579,0.756-0.306,1.201c-0.906,3.583-1.744,7.234-2.445,10.938
		c-1.453-3.467-3.51-6.758-5.506-9.797c-2.233-3.396-4.814-6.567-7.335-9.752c-2.73-3.449-6.22-6.736-8.466-10.52
		c-0.447-0.758-1.714-0.856-2.137,0c-1.039,2.102-0.1,4.863,0.319,7.047c0.825,4.311,1.929,8.568,2.98,12.827
		c0.958,3.881,1.886,7.763,2.79,11.655c0.021,0.086,0.035,0.185,0.055,0.275c-0.064,0.059-0.119,0.127-0.161,0.209
		c-0.214,0.417-0.388,0.853-0.542,1.296c-1.465-1.432-2.936-2.841-4.395-4.201c-5.468-5.107-16.803-18.834-25.537-15.535
		c-0.176,0.065-0.326,0.175-0.463,0.3c-0.76-0.41-1.909-0.06-1.826,1.013c0.863,11.194,7.229,22.051,13.592,30.989
		c0.193,0.269,0.404,0.544,0.604,0.815c-3.238-1.966-7.031-3.515-10.101-5.249c-5.466-3.092-11.028-6.183-17.195-7.613
		c-1.36-0.317-2.389,1.059-1.755,2.284c3.318,6.427,8.538,11.355,14.28,15.673c1.945,1.463,4.202,3.211,6.612,4.884
		c-20.563,0.014-40.964,0.654-61.328,3.482c-1.426,0.196-1.426,2.451,0,2.65c19.895,2.763,39.838,3.482,59.935,3.482
		c10.356,0,20.714,0.025,31.071,0.025c0.959,0.455,1.928,0.88,2.918,1.235c1.131,0.407,2.221-0.271,2.706-1.246
		c8.982-0.011,17.968-0.041,26.949-0.14c20.536-0.229,41.058-0.908,61.595-1.118c21.112-0.216,42.663,0.042,63.645-2.216
		C276.12,97.414,276.12,95.118,274.239,94.915z M102.953,66.674c0.137-0.619,0.313-1.335,0.445-2.073
		c1.535,1.419,3.062,2.848,4.577,4.273c1.374,1.293,2.68,2.627,3.961,3.976c-0.125,0.854-0.248,1.703-0.417,2.519
		c-0.489,2.359-1.079,4.704-1.824,6.998c-1.464-2.093-2.931-4.123-4.354-5.881c-1.252-1.545-2.479-3.107-3.697-4.677
		C102.344,70.246,102.595,68.305,102.953,66.674z M89.066,53.115c2.453,1.148,4.624,2.927,6.674,4.661
		c1.796,1.519,3.562,3.088,5.313,4.676c-0.221,1.293-0.13,2.737-0.254,3.933c-0.122,1.186-0.358,2.506-0.431,3.782
		c-2.025-2.624-4.038-5.256-6.097-7.856c-2.445-3.09-4.785-7.169-7.72-10.104C87.396,52.457,88.239,52.727,89.066,53.115z
		 M92.983,70.917c-3.104-5.072-5.727-10.475-7.88-16.059c1.964,3.276,4.928,6.386,6.958,9.156c2.073,2.838,4.16,5.654,6.294,8.435
		c-0.964-0.23-1.948-0.415-2.845-0.68C94.692,71.529,93.843,71.21,92.983,70.917z M94.837,73.817
		c1.797,0.707,3.865,1.588,5.742,1.487c0.525,0.663,1.045,1.327,1.578,1.983c1.535,1.892,2.965,3.843,4.371,5.807
		c-1.539-0.281-3.23-0.302-4.814-0.364C99.222,79.928,96.928,76.949,94.837,73.817z M110.946,91.445
		c-2.39-1.872-4.639-3.895-6.752-6.05c1.461,0.256,2.934,0.67,4.405,0.768c0.056,0.054,0.122,0.099,0.199,0.129
		c1.208,1.724,2.413,3.448,3.655,5.155C111.952,91.447,111.448,91.445,110.946,91.445z M116.031,91.45
		c-1.672-2.277-3.456-4.924-5.267-7.546c1.114-2.139,1.964-4.353,2.714-6.704c0.204-0.641,0.416-1.316,0.622-2.007
		c4.665,5.198,8.852,10.708,13.182,16.264C123.531,91.447,119.78,91.45,116.031,91.45z M146.712,26.528
		c1.301-2.869,2.768-5.655,4.324-8.395c-0.253,4.185-0.019,8.465-0.267,12.583c-0.296,4.917-0.625,9.787-0.707,14.685
		c-1.715-4.976-3.21-10.062-5.035-14.984C145.573,29.113,146.13,27.815,146.712,26.528z M138.537,49.467
		c1.406-5.208,3.078-10.352,5.021-15.389c0.76,4.329,2.36,8.604,3.693,12.678c1.157,3.537,1.92,7.589,3.039,11.389
		c0.125,4.524,0.247,9.057,0.393,13.586c-1.033-1.743-2.144-3.407-3.186-4.96c-2.812-4.188-6.19-8.887-10.226-12.247
		C137.664,52.835,138.083,51.149,138.537,49.467z M131.122,91.461l-0.051-0.096c0.564-3.581,1.085-7.155,1.609-10.718
		c2.818,3.837,5.971,7.487,9.29,10.889C138.354,91.509,134.736,91.475,131.122,91.461z M149,91.583
		c-1.002-0.01-2.001-0.01-3.001-0.021c-4.245-4.907-8.74-9.543-12.769-14.625c0.94-6.3,1.938-12.577,3.261-18.827
		c2.69,3.437,5.514,6.771,7.891,10.483c2.649,4.135,4.464,8.669,6.677,13.003c0.15,3.348,0.327,6.689,0.544,10.026
		C150.734,91.608,149.867,91.593,149,91.583z M155.943,34.632c-0.617-7.207-0.651-14.566-1.693-21.731
		c0.026-0.053,0.06-0.103,0.085-0.155c3.007,10.628,6.629,21.047,9.408,31.744c-0.092-0.007-0.183-0.02-0.285,0
		c-2.405,0.478-3.919,4.584-5.071,6.491c-0.319,0.526-0.626,1.057-0.938,1.586C156.959,46.587,156.456,40.611,155.943,34.632z
		 M157.888,57.939c-0.044-0.56-0.092-1.116-0.138-1.675c0.914-1.144,1.709-2.508,2.344-3.395c0.902-1.266,1.803-2.536,2.717-3.793
		c0.527-0.726,1.177-1.399,1.549-2.174c0.342,1.385,0.676,2.774,0.981,4.172c1.005,4.586,1.826,9.219,2.445,13.876
		c-0.255-0.418-0.716-0.604-1.199-0.357c-2.199,1.122-3.086,5.085-4.206,7.164c-0.893,1.659-1.895,3.352-3.043,4.931
		C159.003,70.403,158.382,64.123,157.888,57.939z M167.947,91.868c-2.694-0.049-5.389-0.079-8.086-0.121
		c1.757-1.088,3.167-2.659,4.42-4.365c1.692-2.301,4.087-5.246,4.609-8.151C168.824,83.491,168.303,87.649,167.947,91.868z
		 M167.481,77.812c-2.216,1.342-3.22,4.062-4.481,6.218c-1.033,1.764-2.163,3.44-3.492,4.949c0.109-3.012,0.075-6.036-0.031-9.062
		c1.64-1.48,3.057-3.217,4.345-5.046c1.225-1.735,3.824-5.155,4.223-7.894c0.331,2.767,0.594,5.543,0.768,8.325
		c0.062,1.035,0.081,2.056,0.081,3.072C168.696,77.813,168.116,77.426,167.481,77.812z M207.283,70.192
		c-1.851,3.41-3.986,6.644-6.389,9.67c-0.381,0.178-0.77,0.361-1.197,0.521c-1.901,0.706-3.941,1.049-5.921,1.452
		c-2.38,0.48-5.404,0.496-7.967,1.173c3.894-4.842,7.587-9.853,11.251-14.86c2.556,0.477,6.454-0.748,8.596-1.118
		c0.875-0.15,2.206-0.297,3.522-0.59C208.585,67.699,207.956,68.951,207.283,70.192z M211.239,48.192
		c0.573-0.838,2.16-2.636,3.374-4.51c0.006,6.48-1.346,12.716-3.699,18.74c-0.408,0.147-0.817,0.355-1.31,0.542
		c-1.796,0.684-3.723,1.062-5.596,1.46c-1.273,0.27-3.114,0.391-4.798,0.755C203.29,59.567,207.315,53.915,211.239,48.192z
		 M195.93,56.929c2.482-2.461,5.059-4.828,7.683-7.144c1.617-1.427,3.796-2.975,5.881-4.673c-0.343,0.521-0.676,1.024-0.988,1.481
		c-4.209,6.163-8.554,12.234-12.943,18.267c-0.108,0.149-0.216,0.296-0.324,0.441C195.761,62.663,196.114,59.721,195.93,56.929z
		 M190.646,62.551c1.015-1.183,2.064-2.334,3.138-3.457c-0.251,1.869-0.481,3.746-0.889,5.59c-0.388,1.754-0.858,3.474-1.571,5.125
		c-0.324,0.757-0.627,1.244-0.747,1.841c-2.084,2.814-4.192,5.606-6.32,8.384c-0.007-2.736-0.364-5.602-1.041-8.136
		C185.549,68.656,188.081,65.54,190.646,62.551z M173.37,91.972c0.214-1.26,0.357-2.551,0.445-3.857
		c1.711-2.845,3.002-5.911,4.662-8.864c0.968-1.724,2.028-3.407,3.143-5.062c0.05,1.017,0.086,2.033,0.081,3.062
		c-0.015,2.096-0.317,4.258-0.206,6.364c-2.077,2.597-4.987,5.422-6.801,8.384C174.253,91.988,173.812,91.979,173.37,91.972z
		 M178.325,92.069c1.981-1.909,3.796-4.528,4.903-5.875c0.22-0.115,0.396-0.301,0.466-0.573c0.161-0.194,0.315-0.394,0.477-0.588
		c3.424,0.815,7.929-0.28,11.257-0.729c0.495-0.068,1.134-0.145,1.837-0.247c-0.32,0.344-0.637,0.688-0.966,1.025
		c-2.833,2.903-6.44,4.764-9.589,7.152C183.914,92.179,181.121,92.123,178.325,92.069z"/>
	<path fill="#272727" d="M274.239,202.384c-20.981-2.258-42.532-2-63.645-2.217c-20.537-0.209-41.059-0.89-61.595-1.117
		c-8.981-0.099-17.967-0.129-26.949-0.14c-0.485-0.974-1.575-1.654-2.706-1.246c-0.99,0.356-1.959,0.78-2.918,1.237
		c-10.357-0.002-20.715,0.023-31.071,0.023c-20.097,0-40.04,0.722-59.935,3.484c-1.426,0.197-1.426,2.452,0,2.649
		c20.364,2.827,40.765,3.468,61.328,3.481c-2.41,1.674-4.667,3.421-6.612,4.884c-5.742,4.317-10.962,9.248-14.28,15.673
		c-0.634,1.226,0.395,2.602,1.755,2.284c6.167-1.431,11.729-4.521,17.195-7.613c3.069-1.734,6.862-3.283,10.101-5.25
		c-0.199,0.271-0.41,0.548-0.604,0.818c-6.362,8.937-12.729,19.794-13.592,30.987c-0.083,1.072,1.066,1.425,1.826,1.013
		c0.137,0.126,0.287,0.234,0.463,0.3c8.734,3.299,20.069-10.428,25.537-15.533c1.459-1.362,2.93-2.771,4.395-4.203
		c0.154,0.443,0.328,0.881,0.542,1.297c0.042,0.08,0.097,0.148,0.161,0.208c-0.02,0.091-0.033,0.189-0.055,0.274
		c-0.904,3.894-1.832,7.776-2.79,11.656c-1.052,4.259-2.155,8.52-2.98,12.827c-0.419,2.184-1.358,4.946-0.319,7.05
		c0.423,0.853,1.689,0.755,2.137,0c2.246-3.784,5.735-7.073,8.466-10.522c2.521-3.185,5.102-6.354,7.335-9.753
		c1.996-3.038,4.053-6.329,5.506-9.794c0.701,3.701,1.539,7.354,2.445,10.936c-0.273,0.444-0.066,0.933,0.306,1.204
		c0.499,1.926,1.01,3.837,1.542,5.705c2.177,7.656,4.756,15.229,8.111,22.456c1.55,3.338,3.181,6.662,5.102,9.808
		c1.306,2.141,2.306,4.969,4.926,5.503c-0.059,0.219-0.122,0.436-0.18,0.651c-0.304,1.15,1.324,1.857,1.922,0.812
		c7.752-13.589,12.229-29.776,15.412-45.003c0.758-3.617,1.432-7.265,1.977-10.928c1.935,10.131,7.535,20.062,11.894,28.996
		c0.206,0.422,0.732,0.682,1.188,0.68c0.158-0.002,0.316-0.002,0.475,0.005c0.794,0.02,1.322-0.646,1.38-1.38
		c0.54-7.094,0.981-14.252,0.193-21.347c-0.204-1.835-0.431-3.806-0.819-5.749c0.556,0.71,1.103,1.427,1.678,2.119
		c4.262,5.125,8.93,9.804,13.796,14.353c2.47,2.31,4.983,4.592,7.325,7.034c1.633,1.702,2.426,2.721,4.617,3.451
		c0.225,0.075,0.438,0.072,0.642,0.024c0.814,0.801,2.142,0.983,2.764-0.363c5.318-11.515,0.013-26.615-5.773-36.974
		c-1.737-3.112-3.667-6.175-5.816-9.07c10.86,4.317,21.058,10.365,31.886,14.785c1.318,0.54,2.524-1.247,1.807-2.351
		c-4.764-7.325-11.324-13.444-18.325-18.624c-2.197-1.623-4.458-3.209-6.812-4.631c19.83-0.289,39.951-0.043,59.646-2.161
		C276.12,204.883,276.12,202.585,274.239,202.384z M101.644,228.191c1.219-1.57,2.445-3.134,3.697-4.678
		c1.424-1.759,2.891-3.788,4.354-5.881c0.745,2.294,1.335,4.639,1.824,6.998c0.169,0.816,0.292,1.665,0.417,2.519
		c-1.281,1.349-2.587,2.683-3.961,3.976c-1.516,1.428-3.042,2.854-4.577,4.273c-0.132-0.737-0.309-1.454-0.445-2.073
		C102.595,231.693,102.344,229.753,101.644,228.191z M86.553,247.793c2.935-2.935,5.274-7.014,7.72-10.104
		c2.059-2.601,4.071-5.231,6.097-7.856c0.072,1.278,0.309,2.599,0.431,3.783c0.124,1.194,0.033,2.639,0.254,3.932
		c-1.751,1.587-3.518,3.157-5.313,4.679c-2.05,1.731-4.221,3.51-6.674,4.658C88.239,247.272,87.396,247.542,86.553,247.793z
		 M95.511,228.229c0.896-0.266,1.881-0.449,2.845-0.681c-2.134,2.782-4.221,5.6-6.294,8.436c-2.03,2.772-4.994,5.88-6.958,9.155
		c2.153-5.583,4.776-10.986,7.88-16.058C93.843,228.789,94.692,228.47,95.511,228.229z M101.714,217.269
		c1.584-0.061,3.275-0.083,4.814-0.362c-1.406,1.964-2.836,3.913-4.371,5.805c-0.533,0.656-1.053,1.321-1.578,1.983
		c-1.877-0.101-3.945,0.781-5.742,1.489C96.928,223.05,99.222,220.07,101.714,217.269z M112.454,208.552
		c-1.242,1.707-2.447,3.431-3.655,5.154c-0.077,0.031-0.144,0.076-0.199,0.129c-1.472,0.101-2.944,0.513-4.405,0.768
		c2.113-2.154,4.362-4.177,6.752-6.049C111.448,208.554,111.952,208.552,112.454,208.552z M127.282,208.542
		c-4.33,5.556-8.517,11.065-13.182,16.265c-0.206-0.692-0.418-1.368-0.622-2.007c-0.75-2.353-1.6-4.565-2.714-6.706
		c1.811-2.621,3.595-5.268,5.267-7.545C119.78,208.552,123.531,208.552,127.282,208.542z M145.027,269.582
		c1.825-4.922,3.32-10.007,5.035-14.982c0.082,4.895,0.411,9.769,0.707,14.683c0.248,4.118,0.014,8.4,0.267,12.582
		c-1.557-2.735-3.023-5.524-4.324-8.394C146.13,272.185,145.573,270.885,145.027,269.582z M137.271,245.475
		c4.035-3.359,7.413-8.058,10.226-12.245c1.042-1.551,2.152-3.219,3.186-4.961c-0.146,4.529-0.268,9.062-0.393,13.587
		c-1.119,3.799-1.882,7.853-3.039,11.389c-1.333,4.072-2.934,8.348-3.693,12.677c-1.942-5.035-3.614-10.179-5.021-15.39
		C138.083,248.85,137.664,247.164,137.271,245.475z M141.971,208.464c-3.319,3.401-6.472,7.051-9.29,10.888
		c-0.524-3.563-1.045-7.135-1.609-10.715l0.051-0.099C134.736,208.524,138.354,208.489,141.971,208.464z M151.603,208.378
		c-0.217,3.335-0.394,6.678-0.544,10.026c-2.213,4.333-4.027,8.867-6.677,13.002c-2.377,3.713-5.2,7.048-7.891,10.486
		c-1.323-6.254-2.32-12.528-3.261-18.83c4.028-5.083,8.523-9.718,12.769-14.625c1-0.009,1.999-0.009,3.001-0.021
		C149.867,208.406,150.734,208.392,151.603,208.378z M157.448,247.435c0.312,0.527,0.619,1.06,0.938,1.584
		c1.152,1.907,2.666,6.017,5.071,6.491c0.103,0.02,0.193,0.006,0.285,0c-2.779,10.699-6.401,21.116-9.408,31.744
		c-0.025-0.052-0.059-0.103-0.085-0.155c1.042-7.164,1.076-14.524,1.693-21.731C156.456,259.39,156.959,253.413,157.448,247.435z
		 M159.338,223.311c1.148,1.578,2.15,3.271,3.043,4.933c1.12,2.077,2.007,6.04,4.206,7.162c0.483,0.247,0.944,0.061,1.199-0.356
		c-0.619,4.656-1.44,9.289-2.445,13.875c-0.306,1.397-0.64,2.786-0.981,4.172c-0.372-0.774-1.021-1.448-1.549-2.17
		c-0.914-1.261-1.814-2.53-2.717-3.798c-0.635-0.885-1.43-2.25-2.344-3.395c0.046-0.557,0.094-1.115,0.138-1.672
		C158.382,235.876,159.003,229.597,159.338,223.311z M168.891,220.769c-0.522-2.904-2.917-5.849-4.609-8.151
		c-1.253-1.706-2.663-3.276-4.42-4.363c2.697-0.041,5.392-0.074,8.086-0.122C168.303,212.35,168.824,216.508,168.891,220.769z
		 M168.893,221.624c0,1.017-0.019,2.039-0.081,3.072c-0.174,2.782-0.437,5.559-0.768,8.324c-0.398-2.737-2.998-6.156-4.223-7.893
		c-1.288-1.829-2.705-3.563-4.345-5.046c0.106-3.024,0.141-6.05,0.031-9.059c1.329,1.508,2.459,3.181,3.492,4.946
		c1.262,2.156,2.266,4.875,4.481,6.221C168.116,222.573,168.696,222.186,168.893,221.624z M209.179,233.56
		c-1.316-0.293-2.647-0.44-3.522-0.591c-2.142-0.37-6.04-1.595-8.596-1.117c-3.664-5.01-7.357-10.021-11.251-14.86
		c2.562,0.676,5.587,0.691,7.967,1.175c1.979,0.399,4.02,0.744,5.921,1.45c0.428,0.159,0.816,0.344,1.197,0.52
		c2.402,3.027,4.538,6.261,6.389,9.672C207.956,231.048,208.585,232.299,209.179,233.56z M199.211,234.819
		c1.684,0.365,3.524,0.485,4.798,0.755c1.873,0.397,3.8,0.776,5.596,1.46c0.492,0.188,0.901,0.395,1.31,0.545
		c2.354,6.021,3.705,12.257,3.699,18.737c-1.214-1.874-2.801-3.672-3.374-4.51C207.315,246.082,203.29,240.432,199.211,234.819z
		 M195.237,234.697c0.108,0.146,0.216,0.292,0.324,0.441c4.39,6.034,8.734,12.104,12.943,18.267c0.312,0.459,0.646,0.96,0.988,1.483
		c-2.085-1.7-4.264-3.248-5.881-4.674c-2.624-2.316-5.2-4.683-7.683-7.144C196.114,240.278,195.761,237.338,195.237,234.697z
		 M183.216,228.102c0.677-2.532,1.034-5.399,1.041-8.136c2.128,2.779,4.236,5.571,6.32,8.384c0.12,0.6,0.423,1.084,0.747,1.841
		c0.713,1.653,1.184,3.371,1.571,5.125c0.407,1.844,0.638,3.721,0.889,5.593c-1.073-1.127-2.123-2.277-3.138-3.46
		C188.081,234.461,185.549,231.346,183.216,228.102z M174.694,208.004c1.813,2.96,4.724,5.788,6.801,8.382
		c-0.111,2.108,0.191,4.269,0.206,6.365c0.005,1.027-0.031,2.044-0.081,3.061c-1.114-1.653-2.175-3.337-3.143-5.061
		c-1.66-2.954-2.951-6.021-4.662-8.866c-0.088-1.307-0.231-2.6-0.445-3.856C173.812,208.021,174.253,208.011,174.694,208.004z
		 M186.71,207.764c3.148,2.389,6.756,4.251,9.589,7.151c0.329,0.337,0.646,0.683,0.966,1.026c-0.703-0.103-1.342-0.179-1.837-0.247
		c-3.328-0.448-7.833-1.544-11.257-0.726c-0.161-0.197-0.315-0.396-0.477-0.591c-0.07-0.271-0.246-0.457-0.466-0.573
		c-1.107-1.347-2.922-3.966-4.903-5.875C181.121,207.876,183.914,207.82,186.71,207.764z"/>
</g>
</svg>
