<svg width="1200" height="900" viewBox="0 0 1200 900" fill="none" xmlns="http://www.w3.org/2000/svg">
<rect width="1200" height="900" transform="matrix(1 0 0 -1 0 900)" fill="white"/>
<path d="M94 607.5L0 618V695L94 607.5Z" fill="#F0F5F7"/>
<path d="M94 607.5L0 528.5V498L84 464L94 607.5Z" fill="#5B7DAC"/>
<path d="M84 464L0 498V452L16 418.5L84 464Z" fill="#E8E9EA"/>
<path d="M16 418.5L0 452V420.5L16 418.5Z" fill="#5B79AB"/>
<path d="M0 324V355.5L17 341.5L0 324Z" fill="#5B7DAC"/>
<path d="M122 312L17 341.5L59.5 234L122 312Z" fill="#CED5DA"/>
<path d="M0 234H59.5L0 190V234Z" fill="#80A4C6"/>
<path d="M59 234L0 190V161L61 117L59 234Z" fill="#5B79AB"/>
<path d="M61 117L0 161V80.5L61 117Z" fill="#68D7F4"/>
<path d="M67.5 29.5L61 117L0 80.5V47.5L67.5 29.5Z" fill="#EEF5F8"/>
<path d="M67.5 29.5L0 47.5V1.5H63L67.5 29.5Z" fill="#80A4C6"/>
<path d="M67.5 29.5L63 1.5H131L67.5 29.5Z" fill="#5B7DAC"/>
<path d="M67.5 29.5L61 117L135.5 108L153 90.5L67.5 29.5Z" fill="#5B79AB"/>
<path d="M173.5 104.5L153 90.5L136 108L173.5 104.5Z" fill="#80A4C6"/>
<path d="M153 90.5L67.5 30L131 1.5H150L167.5 77L153 90.5Z" fill="#AECCDC"/>
<path d="M167.5 77L150 1.5H162.5L214.5 29L167.5 77Z" fill="#80A4C6"/>
<path d="M167.5 77L153 90.5L174 104.5L167.5 77Z" fill="#68D7F4"/>
<path d="M214.5 29L167.5 77L174.5 104.5L223 34L214.5 29Z" fill="#F0F0F0"/>
<path d="M76 397.5L17.5 342L122 312L76 397.5Z" fill="#F0F0F0"/>
<path d="M223 33.5L162.5 1.5H219.5L223 33.5Z" fill="#5B7DAC"/>
<path d="M223 34L219.5 1.5H258L288 27.5L223 34Z" fill="#E8E9EA"/>
<path d="M288 27.5L258 1.5H290.5L288 27.5Z" fill="#5B7DAC"/>
<path d="M290.5 1.5L288 27.5L324.5 1.5H290.5Z" fill="#F3F4F5"/>
<path d="M0 324V234H59.5L17 341.5L0 324Z" fill="#68D7F4"/>
<path d="M0 355.5V420.5L16 418.5L17 341.5L0 355.5Z" fill="#F0F0F0"/>
<path d="M76 398L122 312L182 336L76 398Z" fill="#68D7F4"/>
<path d="M182 336L122.5 312L199.5 279L182 336Z" fill="#E8E9EA"/>
<path d="M199.5 279L182 336L258 367.5L199.5 279Z" fill="#EEF5F8"/>
<path d="M16 418.5L17 342L76 398L84 464L16 418.5Z" fill="#EEF5F8"/>
<path d="M94 607.5L0 528.5V616.5L94 607.5Z" fill="#E8E9EA"/>
<path d="M94 607.5L0 616.5V696L94 607.5Z" fill="#B3CEDE"/>
<path d="M61 117.5L59 234L174 104.5L61 117.5Z" fill="#B3CEDE"/>
<path d="M124.5 160.5L59.5 233.5L122 312L124.5 160.5Z" fill="#F0F0F0"/>
<path d="M199.5 279L125 160.5L122 312L199.5 279Z" fill="#CED5DA"/>
<path d="M174.5 104.5L124.5 160L200 278.5L220.5 189.5L174.5 104.5Z" fill="#AECCDC"/>
<path d="M220.5 189.5L200 278.5L301.5 212.5L220.5 189.5Z" fill="#EEF5F8"/>
<path d="M301.5 212.5L200 278.5L258.5 368L301.5 212.5Z" fill="#B3CEDE"/>
<path d="M258.5 367.5L182 336L246 408.5L258.5 367.5Z" fill="#CED5DA"/>
<path d="M182 336.5L246 408.5L156.5 457.5L182 336.5Z" fill="#EEF5F8"/>
<path d="M159.5 521.5L94 607.5L84 464L76.5 398L182 336.5L156.5 458L159.5 521.5Z" fill="#CED5DA"/>
<path d="M157 457.5L159.5 521.5L241.5 514L157 457.5Z" fill="#EEF5F8"/>
<path d="M223 34L174.5 104.5L221 189.5L223 34Z" fill="#F0F0F0"/>
<path d="M223 34L221 189.5L301.5 212.5L299 95.5L223 34Z" fill="#F3F4F5"/>
<path d="M288 28L223.5 34L299 95.5L288 28Z" fill="#EEF5F8"/>
<path d="M299 95.5L288 28L399 84L299 95.5Z" fill="#F3F4F5"/>
<path d="M516.5 144.5L288 28L324 1H413.5L516.5 144.5Z" fill="#EEF5F8"/>
<path d="M474 85.5L413.5 1H516.5L474 85.5Z" fill="#CED5DA"/>
<path d="M398.5 84L299 95.5L396 168L516 144.5L398.5 84Z" fill="#CED5DA"/>
<path d="M1121 886L1114.5 900H1140.5L1121 886Z" fill="#5B79AB"/>
<path d="M1200 900H1140.5L1121.5 886L1186 835L1200 845.5V900Z" fill="#5B7DAC"/>
<path d="M1200 811V845.5L1186.5 835L1200 811Z" fill="#5B79AB"/>
<path d="M1200 766V811L1186.5 835L1137.5 798.5L1200 766Z" fill="#D4E7EF"/>
<path d="M1200 723V766L1137.5 798.5L1147.5 683.5L1200 723Z" fill="#68D7F4"/>
<path d="M1200 676V723L1147.5 683L1200 676Z" fill="#80A4C6"/>
<path d="M1200 634.5V675.5L1147.5 683L1140 598.5L1200 634.5Z" fill="#CED5DA"/>
<path d="M1200 473V634.5L1140 598.5L1200 473Z" fill="#5B7DAC"/>
<path d="M1200 425V473L1010 537L1110 425H1200Z" fill="#CED5DA"/>
<path d="M1140 598.5L1010 537L1200 473L1140 598.5Z" fill="#68D7F4"/>
<path d="M1186 835L1121.5 886L1137.5 798.5L1186 835Z" fill="#80A4C6"/>
<path d="M1121.5 886L1137.5 798.5L1058 820.5L1121.5 886Z" fill="#F0F0F0"/>
<path d="M1031 900L1058 820.5L1121 886L1114 900H1031Z" fill="#68D7F4"/>
<path d="M942.5 900H1031L1034 890.5L970 858.5L942.5 900Z" fill="#AECCDC"/>
<path d="M854.5 900H942.5L970 858.5L854.5 900Z" fill="#CED5DA"/>
<path d="M833.5 900H854.5L969.5 858.5L831 790L833.5 900Z" fill="#F3F4F5"/>
<path d="M970 858.5L831 790L951 728L970 858.5Z" fill="#AECCDC"/>
<path d="M951 728L970 858.5L1034 890.5L1058 821L951 728Z" fill="#F0F0F0"/>
<path d="M1058 821L951 728L1061.5 718.5L1058 821Z" fill="#E8E9EA"/>
<path d="M1137.5 798.5L1058 820.5L1061.5 718.5L1147.5 683L1137.5 798.5Z" fill="#CED5DA"/>
<path d="M1147 683L1061.5 718.5L1054.5 624.5L1147 683Z" fill="#AECCDC"/>
<path d="M1147.5 683L1054.5 624.5L1010 537L1140 599L1147.5 683Z" fill="#D4E7EF"/>
<path d="M841.5 691.5L831 790L951 728L1061.5 718.5L995.5 656.5L841.5 691.5Z" fill="#CED5DA"/>
<path d="M1054.5 625L1061.5 718.5L995.5 656.5L1054.5 625Z" fill="#68D7F4"/>
<path d="M787.5 900H833.5L798 806L787.5 900Z" fill="#D4E7EF"/>
<path d="M993 503.5L1054.5 625L995.5 656.5L993 503.5Z" fill="#F0F0F0"/>
<path d="M662 900H787.5L798 806.5L662 878.5V900Z" fill="#F3F4F5"/>
<path d="M918 595.5L995.5 656.5L993 504L976.5 449.5L924.5 499.5L918 595.5Z" fill="#F3F4F5"/>
<path d="M993 504L976.5 449.5L1044.5 351.5L1110 425L1010 537L993 504Z" fill="#E8E9EA"/>
<path d="M1200 386.5V425H1110L1044.5 351.5L1081.5 340L1090.5 246L1178 213L1200 386.5Z" fill="#D4E7EF"/>
<path d="M1200 189V386L1178 213L1200 189Z" fill="#F3F4F5"/>
</svg>
