<svg width="1200" height="900" viewBox="0 0 1200 900" fill="none" xmlns="http://www.w3.org/2000/svg">
<rect width="1200" height="900" fill="white"/>
<path d="M94 292.5L0 282V205L94 292.5Z" fill="#F0F5F7"/>
<path d="M94 292.5L0 371.5V402L84 436L94 292.5Z" fill="#5B7DAC"/>
<path d="M84 436L0 402V448L16 481.5L84 436Z" fill="#E8E9EA"/>
<path d="M16 481.5L0 448V479.5L16 481.5Z" fill="#5B79AB"/>
<path d="M0 576V544.5L17 558.5L0 576Z" fill="#5B7DAC"/>
<path d="M122 588L17 558.5L59.5 666L122 588Z" fill="#CED5DA"/>
<path d="M0 666H59.5L0 710V666Z" fill="#80A4C6"/>
<path d="M59 666L0 710V739L61 783L59 666Z" fill="#5B79AB"/>
<path d="M61 783L0 739V819.5L61 783Z" fill="#68D7F4"/>
<path d="M67.5 870.5L61 783L0 819.5V852.5L67.5 870.5Z" fill="#EEF5F8"/>
<path d="M67.5 870.5L0 852.5V898.5H63L67.5 870.5Z" fill="#80A4C6"/>
<path d="M67.5 870.5L63 898.5H131L67.5 870.5Z" fill="#5B7DAC"/>
<path d="M67.5 870.5L61 783L135.5 792L153 809.5L67.5 870.5Z" fill="#5B79AB"/>
<path d="M173.5 795.5L153 809.5L136 792L173.5 795.5Z" fill="#80A4C6"/>
<path d="M153 809.5L67.5 870L131 898.5H150L167.5 823L153 809.5Z" fill="#AECCDC"/>
<path d="M167.5 823L150 898.5H162.5L214.5 871L167.5 823Z" fill="#80A4C6"/>
<path d="M167.5 823L153 809.5L174 795.5L167.5 823Z" fill="#68D7F4"/>
<path d="M214.5 871L167.5 823L174.5 795.5L223 866L214.5 871Z" fill="#F0F0F0"/>
<path d="M76 502.5L17.5 558L122 588L76 502.5Z" fill="#F0F0F0"/>
<path d="M223 866.5L162.5 898.5H219.5L223 866.5Z" fill="#5B7DAC"/>
<path d="M223 866L219.5 898.5H258L288 872.5L223 866Z" fill="#E8E9EA"/>
<path d="M288 872.5L258 898.5H290.5L288 872.5Z" fill="#5B7DAC"/>
<path d="M290.5 898.5L288 872.5L324.5 898.5H290.5Z" fill="#F3F4F5"/>
<path d="M0 576V666H59.5L17 558.5L0 576Z" fill="#68D7F4"/>
<path d="M0 544.5V479.5L16 481.5L17 558.5L0 544.5Z" fill="#F0F0F0"/>
<path d="M76 502L122 588L182 564L76 502Z" fill="#68D7F4"/>
<path d="M182 564L122.5 588L199.5 621L182 564Z" fill="#E8E9EA"/>
<path d="M199.5 621L182 564L258 532.5L199.5 621Z" fill="#EEF5F8"/>
<path d="M16 481.5L17 558L76 502L84 436L16 481.5Z" fill="#EEF5F8"/>
<path d="M94 292.5L0 371.5V283.5L94 292.5Z" fill="#E8E9EA"/>
<path d="M94 292.5L0 283.5V204L94 292.5Z" fill="#B3CEDE"/>
<path d="M61 782.5L59 666L174 795.5L61 782.5Z" fill="#B3CEDE"/>
<path d="M124.5 739.5L59.5 666.5L122 588L124.5 739.5Z" fill="#F0F0F0"/>
<path d="M199.5 621L125 739.5L122 588L199.5 621Z" fill="#CED5DA"/>
<path d="M174.5 795.5L124.5 740L200 621.5L220.5 710.5L174.5 795.5Z" fill="#AECCDC"/>
<path d="M220.5 710.5L200 621.5L301.5 687.5L220.5 710.5Z" fill="#EEF5F8"/>
<path d="M301.5 687.5L200 621.5L258.5 532L301.5 687.5Z" fill="#B3CEDE"/>
<path d="M258.5 532.5L182 564L246 491.5L258.5 532.5Z" fill="#CED5DA"/>
<path d="M182 563.5L246 491.5L156.5 442.5L182 563.5Z" fill="#EEF5F8"/>
<path d="M159.5 378.5L94 292.5L84 436L76.5 502L182 563.5L156.5 442L159.5 378.5Z" fill="#CED5DA"/>
<path d="M157 442.5L159.5 378.5L241.5 386L157 442.5Z" fill="#EEF5F8"/>
<path d="M223 866L174.5 795.5L221 710.5L223 866Z" fill="#F0F0F0"/>
<path d="M223 866L221 710.5L301.5 687.5L299 804.5L223 866Z" fill="#F3F4F5"/>
<path d="M288 872L223.5 866L299 804.5L288 872Z" fill="#EEF5F8"/>
<path d="M299 804.5L288 872L399 816L299 804.5Z" fill="#F3F4F5"/>
<path d="M516.5 755.5L288 872L324 899H413.5L516.5 755.5Z" fill="#EEF5F8"/>
<path d="M474 814.5L413.5 899H516.5L474 814.5Z" fill="#CED5DA"/>
<path d="M398.5 816L299 804.5L396 732L516 755.5L398.5 816Z" fill="#CED5DA"/>
<path d="M1121 14L1114.5 0H1140.5L1121 14Z" fill="#5B79AB"/>
<path d="M1200 0H1140.5L1121.5 14L1186 65L1200 54.5V0Z" fill="#5B7DAC"/>
<path d="M1200 89V54.5L1186.5 65L1200 89Z" fill="#5B79AB"/>
<path d="M1200 134V89L1186.5 65L1137.5 101.5L1200 134Z" fill="#D4E7EF"/>
<path d="M1200 177V134L1137.5 101.5L1147.5 216.5L1200 177Z" fill="#68D7F4"/>
<path d="M1200 224V177L1147.5 217L1200 224Z" fill="#80A4C6"/>
<path d="M1200 265.5V224.5L1147.5 217L1140 301.5L1200 265.5Z" fill="#CED5DA"/>
<path d="M1200 427V265.5L1140 301.5L1200 427Z" fill="#5B7DAC"/>
<path d="M1200 475V427L1010 363L1110 475H1200Z" fill="#CED5DA"/>
<path d="M1140 301.5L1010 363L1200 427L1140 301.5Z" fill="#68D7F4"/>
<path d="M1186 65L1121.5 14L1137.5 101.5L1186 65Z" fill="#80A4C6"/>
<path d="M1121.5 14L1137.5 101.5L1058 79.5L1121.5 14Z" fill="#F0F0F0"/>
<path d="M1031 0L1058 79.5L1121 14L1114 0H1031Z" fill="#68D7F4"/>
<path d="M942.5 0H1031L1034 9.5L970 41.5L942.5 0Z" fill="#AECCDC"/>
<path d="M854.5 0H942.5L970 41.5L854.5 0Z" fill="#CED5DA"/>
<path d="M833.5 0H854.5L969.5 41.5L831 110L833.5 0Z" fill="#F3F4F5"/>
<path d="M970 41.5L831 110L951 172L970 41.5Z" fill="#AECCDC"/>
<path d="M951 172L970 41.5L1034 9.5L1058 79L951 172Z" fill="#F0F0F0"/>
<path d="M1058 79L951 172L1061.5 181.5L1058 79Z" fill="#E8E9EA"/>
<path d="M1137.5 101.5L1058 79.5L1061.5 181.5L1147.5 217L1137.5 101.5Z" fill="#CED5DA"/>
<path d="M1147 217L1061.5 181.5L1054.5 275.5L1147 217Z" fill="#AECCDC"/>
<path d="M1147.5 217L1054.5 275.5L1010 363L1140 301L1147.5 217Z" fill="#D4E7EF"/>
<path d="M841.5 208.5L831 110L951 172L1061.5 181.5L995.5 243.5L841.5 208.5Z" fill="#CED5DA"/>
<path d="M1054.5 275L1061.5 181.5L995.5 243.5L1054.5 275Z" fill="#68D7F4"/>
<path d="M787.5 0H833.5L798 94L787.5 0Z" fill="#D4E7EF"/>
<path d="M993 396.5L1054.5 275L995.5 243.5L993 396.5Z" fill="#F0F0F0"/>
<path d="M662 0H787.5L798 93.5L662 21.5V0Z" fill="#F3F4F5"/>
<path d="M918 304.5L995.5 243.5L993 396L976.5 450.5L924.5 400.5L918 304.5Z" fill="#F3F4F5"/>
<path d="M993 396L976.5 450.5L1044.5 548.5L1110 475L1010 363L993 396Z" fill="#E8E9EA"/>
<path d="M1200 513.5V475H1110L1044.5 548.5L1081.5 560L1090.5 654L1178 687L1200 513.5Z" fill="#D4E7EF"/>
<path d="M1200 711V514L1178 687L1200 711Z" fill="#F3F4F5"/>
</svg>
